<svg width="109" height="109" viewBox="0 0 109 109" fill="none" xmlns="http://www.w3.org/2000/svg">
<path d="M54.5 1L58.6846 28.0793L71.0324 3.61848L66.6442 30.6656L85.9465 11.2176L73.4151 35.5849L97.7824 23.0535L78.3344 42.3558L105.382 37.9676L80.9207 50.3154L108 54.5L80.9207 58.6846L105.382 71.0324L78.3344 66.6442L97.7824 85.9465L73.4151 73.4151L85.9465 97.7824L66.6442 78.3344L71.0324 105.382L58.6846 80.9207L54.5 108L50.3154 80.9207L37.9676 105.382L42.3558 78.3344L23.0535 97.7824L35.5849 73.4151L11.2176 85.9465L30.6656 66.6442L3.61848 71.0324L28.0793 58.6846L1 54.5L28.0793 50.3154L3.61848 37.9676L30.6656 42.3558L11.2176 23.0535L35.5849 35.5849L23.0535 11.2176L42.3558 30.6656L37.9676 3.61848L50.3154 28.0793L54.5 1Z" fill="#D9D9D9" stroke="black" stroke-width="1.5"/>
</svg>
